<?xml version="1.0" encoding="utf-8"?>
<svg viewBox="624.112 243.074 168.697 55.342" xmlns="http://www.w3.org/2000/svg">
  <g transform="matrix(1, 0, 0, 1, -6.984093, -57.980679)">
    <path d="M 702.785 325.872 C 701.625 325.872 700.756 325.54 700.006 324.811 L 700.875 323.968 C 701.318 324.397 701.779 324.745 702.785 324.745 C 704.371 324.745 705.275 323.768 705.275 322.028 L 705.275 313.979 L 706.57 313.979 L 706.57 322.194 C 706.57 324.464 705.002 325.872 702.785 325.872" fill="#121212" style="pointer-events: none;"/>
    <path d="M 714.01 325.772 L 714.01 313.979 L 721.547 313.979 L 721.547 315.106 L 715.305 315.106 L 715.305 319.262 L 720.627 319.262 L 720.627 320.389 L 715.305 320.389 L 715.305 324.645 L 721.547 324.645 L 721.547 325.772 L 714.01 325.772 Z" fill="#121212" style="pointer-events: none;"/>
    <path d="M 727.656 325.772 L 727.656 313.979 L 728.951 313.979 L 728.951 324.645 L 735.16 324.645 L 735.16 325.772 L 727.656 325.772 Z" fill="#121212" style="pointer-events: none;"/>
    <path d="M 746.521 324.514 C 745.667 325.407 744.525 325.871 743.279 325.871 C 742.087 325.871 740.994 325.44 740.175 324.645 C 739.033 323.535 739.033 322.375 739.033 319.875 C 739.033 317.375 739.033 316.215 740.175 315.106 C 740.994 314.309 742.068 313.879 743.279 313.879 C 745.599 313.879 747.169 315.336 747.527 317.407 L 746.23 317.407 C 745.89 315.916 744.796 315.006 743.279 315.006 C 742.478 315.006 741.71 315.321 741.183 315.852 C 740.416 316.612 740.33 317.407 740.33 319.875 C 740.33 322.342 740.416 323.155 741.183 323.918 C 741.71 324.448 742.478 324.744 743.279 324.744 C 744.166 324.744 745.019 324.397 745.582 323.735 C 746.076 323.155 746.265 322.508 746.265 321.598 L 746.265 320.703 L 743.279 320.703 L 743.279 319.594 L 747.56 319.594 L 747.56 321.465 C 747.56 322.825 747.271 323.735 746.521 324.514" fill="#121212" style="pointer-events: none;"/>
    <path d="M 757.133 315.784 L 754.848 322.013 L 759.383 322.013 L 757.133 315.784 Z M 760.731 325.772 L 759.758 323.106 L 754.453 323.106 L 753.483 325.772 L 752.102 325.772 L 756.569 313.979 L 757.66 313.979 L 762.113 325.772 L 760.731 325.772 Z" fill="#121212" style="pointer-events: none;"/>
    <path d="M 770.318 325.772 L 769.259 325.772 L 765.269 313.979 L 766.634 313.979 L 769.789 323.518 L 772.943 313.979 L 774.308 313.979 L 770.318 325.772 Z" fill="#121212" style="pointer-events: none;"/>
    <path d="M 782.121 315.784 L 779.836 322.013 L 784.373 322.013 L 782.121 315.784 Z M 785.721 325.772 L 784.748 323.106 L 779.443 323.106 L 778.473 325.772 L 777.092 325.772 L 781.558 313.979 L 782.65 313.979 L 787.101 325.772 L 785.721 325.772 Z" fill="#121212" style="pointer-events: none;"/>
    <path d="M 795.598 325.872 C 793.772 325.872 792.578 325.425 791.436 324.315 L 792.323 323.454 C 793.328 324.431 794.268 324.745 795.631 324.745 C 797.407 324.745 798.496 323.934 798.496 322.558 C 798.496 321.946 798.309 321.417 797.916 321.085 C 797.526 320.753 797.219 320.655 796.332 320.52 L 794.916 320.308 C 793.961 320.157 793.209 319.86 792.682 319.411 C 792.067 318.882 791.76 318.153 791.76 317.21 C 791.76 315.206 793.244 313.88 795.649 313.88 C 797.202 313.88 798.225 314.263 799.264 315.173 L 798.43 315.983 C 797.678 315.321 796.877 314.974 795.598 314.974 C 793.977 314.974 793.039 315.852 793.039 317.159 C 793.039 317.739 793.209 318.204 793.586 318.518 C 793.961 318.833 794.592 319.063 795.223 319.165 L 796.553 319.362 C 797.696 319.528 798.258 319.761 798.77 320.19 C 799.436 320.737 799.793 321.548 799.793 322.526 C 799.793 324.597 798.121 325.872 795.598 325.872" fill="#121212" style="pointer-events: none;"/>
    <path d="M 704.777 335.653 L 704.777 344.305 L 703.726 344.305 L 703.726 335.653 L 700.877 335.653 L 700.877 334.739 L 707.627 334.739 L 707.627 335.653 L 704.777 335.653 Z" fill="#121212" style="pointer-events: none;"/>
    <path d="M 712.236 344.305 L 712.236 334.739 L 718.349 334.739 L 718.349 335.653 L 713.287 335.653 L 713.287 339.026 L 717.603 339.026 L 717.603 339.938 L 713.287 339.938 L 713.287 343.391 L 718.349 343.391 L 718.349 344.305 L 712.236 344.305 Z" fill="#121212" style="pointer-events: none;"/>
    <path d="M 729.033 344.305 L 729.033 339.938 L 724.357 339.938 L 724.357 344.305 L 723.306 344.305 L 723.306 334.739 L 724.357 334.739 L 724.357 339.026 L 729.033 339.026 L 729.033 334.739 L 730.084 334.739 L 730.084 344.305 L 729.033 344.305 Z" fill="#121212" style="pointer-events: none;"/>
    <path d="M 742.26 344.305 L 737.031 336.633 L 737.031 344.305 L 735.981 344.305 L 735.981 334.739 L 736.977 334.739 L 742.205 342.383 L 742.205 334.739 L 743.256 334.739 L 743.256 344.305 L 742.26 344.305 Z" fill="#121212" style="pointer-events: none;"/>
    <path d="M 749.152 334.739 L 750.203 334.739 L 750.203 344.305 L 749.152 344.305 L 749.152 334.739 Z" fill="#121212" style="pointer-events: none;"/>
    <path d="M 762.227 344.305 L 759.225 339.213 L 757.151 341.631 L 757.151 344.305 L 756.098 344.305 L 756.098 334.739 L 757.151 334.739 L 757.151 340.235 L 761.743 334.739 L 763.03 334.739 L 759.93 338.434 L 763.471 344.305 L 762.227 344.305 Z" fill="#121212" style="pointer-events: none;"/>
    <path d="M 770.875 344.385 C 768.883 344.385 767.443 343.055 767.443 341.149 L 767.443 334.739 L 768.496 334.739 L 768.496 341.067 C 768.496 342.518 769.436 343.473 770.875 343.473 C 772.313 343.473 773.268 342.518 773.268 341.067 L 773.268 334.739 L 774.32 334.739 L 774.32 341.149 C 774.32 343.055 772.867 344.385 770.875 344.385" fill="#121212" style="pointer-events: none;"/>
    <path d="M 787.188 344.305 L 787.188 337.037 L 784.491 342.801 L 783.592 342.801 L 780.852 337.037 L 780.852 344.305 L 779.801 344.305 L 779.801 334.739 L 780.852 334.739 L 784.061 341.524 L 787.188 334.739 L 788.239 334.739 L 788.239 344.305 L 787.188 344.305 Z" fill="#121212" style="pointer-events: none;"/>
    <path d="M 796.391 344.385 C 794.911 344.385 793.942 344.022 793.014 343.123 L 793.735 342.424 C 794.551 343.217 795.311 343.473 796.418 343.473 C 797.858 343.473 798.743 342.813 798.743 341.699 C 798.743 341.201 798.59 340.772 798.272 340.502 C 797.954 340.235 797.704 340.155 796.985 340.047 L 795.836 339.871 C 795.063 339.75 794.453 339.508 794.026 339.147 C 793.528 338.715 793.278 338.125 793.278 337.36 C 793.278 335.733 794.481 334.658 796.432 334.658 C 797.69 334.658 798.52 334.967 799.366 335.707 L 798.688 336.365 C 798.079 335.826 797.428 335.545 796.391 335.545 C 795.077 335.545 794.315 336.256 794.315 337.319 C 794.315 337.789 794.453 338.166 794.758 338.42 C 795.063 338.676 795.575 338.864 796.086 338.946 L 797.164 339.106 C 798.092 339.24 798.549 339.428 798.963 339.778 C 799.502 340.221 799.793 340.879 799.793 341.67 C 799.793 343.35 798.438 344.385 796.391 344.385" fill="#121212" style="pointer-events: none;"/>
    <path d="M 659.231 355.475 L 659.231 349.717 C 670.594 349.469 679.764 340.153 679.766 328.723 L 679.766 311.419 C 679.764 309.381 678.114 307.728 676.077 307.726 L 659.227 307.726 L 659.227 301.973 L 676.079 301.973 C 681.284 301.981 685.512 306.207 685.522 311.413 L 685.518 311.413 L 685.522 328.725 C 685.522 343.325 673.77 355.225 659.231 355.475 M 663.579 328.817 L 663.579 339.385 L 659.231 339.385 L 659.231 317.7 L 672.639 317.7 L 672.639 325.933 L 666.463 325.933 C 664.872 325.933 663.579 327.223 663.579 328.817 M 638.688 328.723 L 638.686 326.848 L 651.073 326.848 C 652.153 326.848 653.04 327.733 653.042 328.817 L 653.036 340.299 L 664.497 340.301 L 664.497 328.817 C 664.501 327.733 665.381 326.851 666.463 326.848 L 673.557 326.848 L 673.557 316.781 L 638.686 316.78 L 638.686 311.42 C 638.686 309.887 639.928 308.645 641.46 308.645 L 659.227 308.645 L 676.077 308.645 C 677.606 308.645 678.85 309.891 678.85 311.42 L 678.85 328.723 C 678.85 339.791 669.852 348.795 658.79 348.807 C 647.692 348.786 638.706 339.795 638.688 328.723 M 686.44 328.725 L 686.436 311.413 C 686.428 305.702 681.794 301.065 676.079 301.055 L 641.456 301.055 C 635.745 301.065 631.108 305.702 631.1 311.413 L 631.096 311.414 L 631.096 328.727 C 631.096 343.834 643.26 356.137 658.313 356.385 L 658.313 356.395 L 658.752 356.395 C 658.756 356.395 658.762 356.397 658.768 356.397 L 659.231 356.397 L 659.231 356.385 C 674.278 356.133 686.436 343.829 686.44 328.725" fill="#121212" style="pointer-events: none;"/>
  </g>
</svg>